HIERARCHY
ROOT Hips
{
	OFFSET 0.00000 0.00000 0.00000
	CHANNELS 6 Xposition Yposition Zposition Zrotation Yrotation Xrotation 
	JOINT LHipJoint
	{
		OFFSET 0 0 0
		CHANNELS 3 Zrotation Yrotation Xrotation
		JOINT LeftHip
		{
			OFFSET 1.65674 -1.80282 0.62477
			CHANNELS 3 Zrotation Yrotation Xrotation
			JOINT LeftKnee
			{
				OFFSET 2.59720 -7.13576 0.00000
				CHANNELS 3 Zrotation Yrotation Xrotation
				JOINT LeftAnkle
				{
					OFFSET 2.49236 -6.84770 0.00000
					CHANNELS 3 Zrotation Yrotation Xrotation
					JOINT LeftToe
					{
						OFFSET 0.19704 -0.54136 2.14581
						CHANNELS 3 Zrotation Yrotation Xrotation
						End Site
						{
							OFFSET 0.00000 -0.00000 1.11249
						}
					}
				}
			}
		}
	}
	JOINT RHipJoint
	{
		OFFSET 0 0 0
		CHANNELS 3 Zrotation Yrotation Xrotation
		JOINT RightHip
		{
			OFFSET -1.61070 -1.80282 0.62476
			CHANNELS 3 Zrotation Yrotation Xrotation
			JOINT RightKnee
			{
				OFFSET -2.59502 -7.12977 0.00000
				CHANNELS 3 Zrotation Yrotation Xrotation
				JOINT RightAnkle
				{
					OFFSET -2.46780 -6.78024 0.00000
					CHANNELS 3 Zrotation Yrotation Xrotation
					JOINT RightToe
					{
						OFFSET -0.23024 -0.63258 2.13368
						CHANNELS 3 Zrotation Yrotation Xrotation
						End Site
						{
							OFFSET -0.00000 -0.00000 1.11569
						}
					}
				}
			}
		}
	}
	JOINT lowerback
	{
		OFFSET 0 0 0
		CHANNELS 3 Zrotation Yrotation Xrotation
		JOINT Chest
		{
			OFFSET 0.01961 2.05450 -0.14112
			CHANNELS 3 Zrotation Yrotation Xrotation
			JOINT Chest2
			{
				OFFSET 0.01021 2.06436 -0.05921
				CHANNELS 3 Zrotation Yrotation Xrotation
				JOINT lowerneck
				{
					OFFSET 0 0 0
					CHANNELS 3 Zrotation Yrotation Xrotation
					JOINT Neck
					{
						OFFSET 0.00713 1.56711 0.14968
						CHANNELS 3 Zrotation Yrotation Xrotation
						JOINT Head
						{
							OFFSET 0.03429 1.56041 -0.10006
							CHANNELS 3 Zrotation Yrotation Xrotation
							End Site
							{
								OFFSET 0.01305 1.62560 -0.05265
							}
						}
					}
				}
				JOINT LeftCollar
				{
					OFFSET 0 0 0
					CHANNELS 3 Zrotation Yrotation Xrotation
					JOINT LeftShoulder
					{
						OFFSET 3.54205 0.90436 -0.17364
CHANNELS 3 Zrotation Xrotation Yrotation
						JOINT LeftElbow
						{
OFFSET 0 -4.865130 -0.000000
CHANNELS 3 Zrotation Xrotation Yrotation
							JOINT LeftWrist
							{
OFFSET 0 -3.355540 0.000000
CHANNELS 3 Zrotation Xrotation Yrotation
								JOINT lhand
								{
									OFFSET 0 0 0
CHANNELS 3 Zrotation Xrotation Yrotation
									JOINT LFingers
									{
OFFSET 0 -0.661170 0.000000
CHANNELS 3 Zrotation Xrotation Yrotation
										End Site
										{
OFFSET 0 -0.533060 0.000000
										}
									}
								}
								JOINT LThumb
								{
OFFSET 0 0.000000 0.000000
CHANNELS 3 Zrotation Xrotation Yrotation
									End Site
									{
OFFSET 0 -0.541200 0.541200
									}
								}
							}
						}
					}
				}
				JOINT RightCollar
				{
					OFFSET 0 0 0
					CHANNELS 3 Zrotation Yrotation Xrotation
					JOINT RightShoulder
					{
						OFFSET -3.49802 0.75994 -0.32616
CHANNELS 3 Zrotation Xrotation Yrotation
						JOINT RightElbow
						{
OFFSET 0 -5.026490 0.000000
CHANNELS 3 Zrotation Xrotation Yrotation
							JOINT RightWrist
							{
OFFSET 0 -3.364310 0.000000
CHANNELS 3 Zrotation Xrotation Yrotation
								JOINT rhand
								{
									OFFSET 0 0 0
CHANNELS 3 Zrotation Xrotation Yrotation
									JOINT RFingers
									{
OFFSET 0 -0.730410 0.000000
CHANNELS 3 Zrotation Xrotation Yrotation
										End Site
										{
OFFSET 0 -0.588870 0.000000
										}
									}
								}
								JOINT RThumb
								{
OFFSET 0 0.000000 0.000000
CHANNELS 3 Zrotation Xrotation Yrotation
									End Site
									{
OFFSET 0 -0.597860 0.597860
									}
								}
							}
						}
					}
				}
			}
		}
	}
}
MOTION
Frames: 10
Frame Time: 0.008333333333333333
18.258606 15.940232 -3.199526 153.477970 -72.969520 -149.588900 0.000000 0.000000 0.000000 -13.383365 22.279051 -32.403997 8.918865 16.755243 55.809176 0.983249 17.696952 -32.186884 0.159729 2.568002 7.078578 0.000000 0.000000 0.000000 6.826706 10.997945 -35.874312 -11.796502 -18.303309 65.342321 -2.555020 5.835748 -29.025326 -0.503932 4.547463 -12.622856 0.574317 -1.271913 16.834072 -0.223277 -2.408746 10.076636 -0.198032 -1.511738 1.282315 9.956246 21.177162 -0.670683 -20.158517 28.864481 -2.407835 -5.447820 14.347474 3.787352 0.000000 0.000000 0.000000 13.621767 -15.730571 -18.803145 66.182882 -57.744182 39.530016 31.893056 -16.678235 -11.318587 0.000000 0.000000 0.000000 -7.125000 0.000000 0.000000 4.343765 43.202788 0.193539 0.000000 0.000000 0.000000 -45.256794 11.262644 -36.799313 -57.417748 -55.580872 -32.201727 -55.696985 -62.871074 -23.293384 0.000000 0.000000 0.000000 7.125000 0.000000 0.000000 -15.431423 -6.217000 -17.632000
18.269037 15.909971 -3.162107 152.558068 -73.542623 -148.715962 0.000000 0.000000 0.000000 -13.431117 22.106826 -32.833961 9.087145 16.863397 56.390881 1.030171 17.308646 -32.076974 0.151072 2.504110 6.901018 0.000000 0.000000 0.000000 6.649369 10.677204 -36.016345 -11.898417 -18.347364 65.666542 -2.595948 6.193299 -29.225374 -0.311531 3.587998 -9.920246 0.604687 -1.113829 17.106787 -0.161297 -2.210151 10.205656 -0.175069 -1.418510 1.283980 10.415605 21.079472 -0.666136 -20.525492 28.807049 -2.105349 -5.570188 14.299815 3.995793 0.000000 0.000000 0.000000 13.456190 -16.214344 -19.132736 65.959057 -57.699332 39.340714 31.294985 -16.366913 -12.010758 0.000000 0.000000 0.000000 -7.125000 0.000000 0.000000 3.764734 43.928691 0.099493 0.000000 0.000000 0.000000 -44.851087 10.878157 -37.328037 -56.018109 -55.151618 -31.049980 -57.603400 -65.241404 -23.635855 0.000000 0.000000 0.000000 7.125000 0.000000 0.000000 -16.355492 -7.877381 -19.189580
18.273019 15.894119 -3.122509 153.059491 -74.702705 -149.159135 0.000000 0.000000 0.000000 -12.716374 21.689965 -33.248835 9.239659 16.959468 56.915286 0.926134 17.170327 -31.277144 0.088014 1.881356 5.178909 0.000000 0.000000 0.000000 7.255048 10.008169 -36.026059 -11.914771 -18.354416 65.718398 -2.635187 6.269417 -29.447803 -0.222854 3.034477 -8.375216 1.175728 -1.224576 17.316453 0.188278 -2.275973 10.267069 -0.113666 -1.439180 1.239832 10.291586 21.057497 -0.817102 -20.630408 28.780509 -2.082544 -5.571361 14.276611 4.023024 0.000000 0.000000 0.000000 12.948019 -16.107892 -18.953937 66.425539 -57.792173 39.735273 31.454484 -15.420047 -13.155953 0.000000 0.000000 0.000000 -7.125000 0.000000 0.000000 3.855697 45.267310 -0.024791 0.000000 0.000000 0.000000 -45.305093 9.669243 -37.524137 -53.620242 -54.353296 -29.091925 -55.736433 -62.448504 -22.355268 0.000000 0.000000 0.000000 7.125000 0.000000 0.000000 -15.722276 -4.984827 -17.682570
18.270036 15.897758 -3.080400 151.938988 -76.458979 -147.854152 0.000000 0.000000 0.000000 -12.188997 20.710969 -33.871256 9.382678 17.047728 57.404148 0.769064 17.436718 -30.540974 0.022089 0.957562 2.631978 0.000000 0.000000 0.000000 7.798973 8.883746 -35.997742 -11.837935 -18.321278 65.474052 -2.647068 5.330544 -29.638073 -0.304526 3.530675 -9.761682 2.012593 -1.624458 17.281373 0.370050 -2.674434 10.314016 -0.332384 -1.603544 1.285370 11.166154 20.797858 -0.917108 -22.015240 28.474559 -2.376242 -6.048430 14.107349 4.261993 0.000000 0.000000 0.000000 13.148835 -15.992327 -18.556236 66.864792 -57.877641 40.107056 29.113498 -16.976573 -12.037420 0.000000 0.000000 0.000000 -7.125000 0.000000 0.000000 1.746294 43.689153 0.056883 0.000000 0.000000 0.000000 -44.587524 8.506857 -38.024744 -52.909053 -54.103079 -28.514495 -55.229486 -62.545702 -22.611603 0.000000 0.000000 0.000000 7.125000 0.000000 0.000000 -15.374011 -5.028882 -17.272215
18.275228 15.887992 -3.042477 151.779604 -77.701161 -147.556399 0.000000 0.000000 0.000000 -11.702886 20.462279 -34.532034 9.531522 17.137873 57.910838 0.917002 16.375551 -30.391485 0.026041 1.037358 2.851576 0.000000 0.000000 0.000000 8.281059 8.357443 -36.036698 -11.844321 -18.324071 65.494510 -2.668675 4.996781 -29.813876 -0.322602 3.648255 -10.089308 2.459392 -1.487524 17.163589 0.415719 -2.414981 10.262768 -0.579524 -1.447088 1.285321 11.194035 20.723243 -1.235782 -20.810028 28.351975 -1.789753 -5.704617 14.018501 4.271511 0.000000 0.000000 0.000000 13.582969 -15.974890 -19.005711 67.035547 -57.910378 40.251732 31.949168 -16.419960 -12.104890 0.000000 0.000000 0.000000 -7.125000 0.000000 0.000000 4.369417 44.121287 0.094575 0.000000 0.000000 0.000000 -44.013586 7.520516 -38.488399 -51.030670 -53.400517 -27.000081 -55.216112 -61.187287 -21.461805 0.000000 0.000000 0.000000 7.125000 0.000000 0.000000 -15.692305 -3.467809 -17.256836
18.288329 15.905999 -2.983656 148.159172 -78.353906 -144.141436 0.000000 0.000000 0.000000 -12.295840 20.421198 -34.846156 9.574582 17.163584 58.056817 0.877017 16.140156 -29.881250 0.002444 0.305628 0.839870 0.000000 0.000000 0.000000 7.638677 7.741985 -36.088326 -11.897750 -18.347096 65.664307 -2.673834 4.867631 -29.864133 -0.262741 3.296484 -9.105390 2.167718 -1.446108 17.521469 0.354274 -2.390355 10.277047 -0.471356 -1.446796 1.122324 12.087479 20.407233 -0.764367 -21.866126 27.973197 -2.157985 -6.190219 13.859666 4.328777 0.000000 0.000000 0.000000 13.705472 -15.784461 -18.947324 67.231004 -57.947510 40.417293 32.269047 -16.536246 -12.387371 0.000000 0.000000 0.000000 -7.125000 0.000000 0.000000 4.658112 44.490900 0.057746 0.000000 0.000000 0.000000 -43.981598 6.266034 -38.159193 -49.371159 -52.738540 -25.672911 -56.383483 -62.769307 -21.466952 0.000000 0.000000 0.000000 7.125000 0.000000 0.000000 -16.327321 -4.162385 -18.201761
18.295075 15.923235 -2.920892 145.546347 -79.147465 -141.650347 0.000000 0.000000 0.000000 -12.467263 20.296984 -35.118613 9.630912 17.196963 58.247371 1.167799 14.693429 -30.387651 0.051750 1.435700 3.948999 0.000000 0.000000 0.000000 7.432399 6.871019 -36.023610 -11.883938 -18.341185 65.620453 -2.643812 4.222583 -29.795262 -0.427004 4.192970 -11.620376 1.738072 -1.609738 17.742009 0.697910 -2.666061 10.337303 0.182549 -1.617708 1.100134 10.755665 20.609272 -1.251439 -21.408988 28.225072 -1.861423 -5.839526 13.953303 4.273737 0.000000 0.000000 0.000000 13.417608 -15.551628 -17.549007 67.225898 -57.946524 40.412996 31.518669 -16.337178 -11.943318 0.000000 0.000000 0.000000 -7.125000 0.000000 0.000000 3.975339 43.879269 0.110122 0.000000 0.000000 0.000000 -44.923221 3.431778 -37.842983 -47.008125 -51.710159 -23.806209 -55.889315 -61.588792 -21.373634 0.000000 0.000000 0.000000 7.125000 0.000000 0.000000 -16.084852 -3.738992 -17.796631
18.311516 15.917413 -2.842473 141.239554 -80.159701 -137.148634 0.000000 0.000000 0.000000 -12.790528 19.819681 -35.844825 9.687977 17.230590 58.440291 0.860072 15.263606 -28.857009 0.014622 -0.375937 -1.034150 0.000000 0.000000 0.000000 7.092508 6.038984 -36.287450 -11.840933 -18.322565 65.483716 -2.632642 3.758245 -29.815206 -0.441818 4.264930 -11.823225 1.882072 -1.476299 17.418544 0.745594 -2.457189 10.331409 0.105471 -1.498104 1.258920 10.741689 20.384773 -1.440235 -21.138783 27.899247 -1.759747 -5.799400 13.781833 4.239531 0.000000 0.000000 0.000000 13.694799 -15.785991 -17.822793 67.113678 -57.925305 40.317909 31.214184 -16.147307 -12.220704 0.000000 0.000000 0.000000 -7.125000 0.000000 0.000000 3.679739 44.160039 0.076380 0.000000 0.000000 0.000000 -44.256853 1.725232 -38.097305 -45.518995 -51.020201 -22.641517 -55.237263 -60.783396 -21.602814 0.000000 0.000000 0.000000 7.125000 0.000000 0.000000 -15.664030 -3.672829 -17.277174
18.330102 15.919812 -2.761256 135.959304 -81.126826 -132.339033 0.000000 0.000000 0.000000 -12.896699 19.476643 -35.703901 9.719417 17.249028 58.546384 0.987736 14.133492 -28.634010 0.002456 -0.191227 -0.525469 0.000000 0.000000 0.000000 6.797536 5.166702 -35.734459 -11.763929 -18.289090 65.238478 -2.620589 3.560692 -29.782535 -0.409518 4.107566 -11.379642 1.996227 -1.316999 17.967946 0.710100 -2.218046 10.353028 -0.015749 -1.374309 0.998732 11.534352 20.130050 -1.602505 -21.210560 27.624169 -1.225172 -5.897077 13.606112 4.505869 0.000000 0.000000 0.000000 14.144895 -15.923339 -18.108779 67.027019 -57.908811 40.244462 30.804318 -16.538995 -11.990411 0.000000 0.000000 0.000000 -7.125000 0.000000 0.000000 3.310993 43.843754 0.094535 0.000000 0.000000 0.000000 -43.390500 0.066735 -38.119184 -44.176636 -50.356618 -21.603409 -56.417818 -61.886479 -21.658134 0.000000 0.000000 0.000000 7.125000 0.000000 0.000000 -16.291471 -4.445846 -18.233934
18.335725 15.933833 -2.680068 125.743920 -81.755495 -122.430129 0.000000 0.000000 0.000000 -13.749701 19.104825 -35.643105 9.658677 17.213441 58.341403 0.691350 14.532983 -26.863065 0.147553 -2.463163 -6.788196 0.000000 0.000000 0.000000 5.916952 3.964705 -35.253239 -11.689456 -18.256222 65.000966 -2.635983 3.490406 -29.887655 -0.384260 3.980758 -11.022533 1.775752 -1.092141 17.978885 0.703478 -1.963086 10.540479 0.054768 -1.255179 1.204329 11.086669 19.875530 -2.395556 -20.215328 27.267030 -0.423624 -5.537662 13.365740 4.600064 0.000000 0.000000 0.000000 14.125570 -16.864545 -18.689123 66.514387 -57.809493 39.810483 30.936531 -15.952520 -12.569133 0.000000 0.000000 0.000000 -7.125000 0.000000 0.000000 3.402483 44.524101 0.039806 0.000000 0.000000 0.000000 -43.526480 -1.943121 -38.187289 -41.891503 -49.149836 -19.858895 -57.431376 -60.889025 -20.764058 0.000000 0.000000 0.000000 7.125000 0.000000 0.000000 -17.095857 -3.829405 -19.043961
